<?xml version="1.0" encoding="iso-8859-1"?>
<!-- Uploaded to: SVG Repo, www.svgrepo.com, Generator: SVG Repo Mixer Tools -->
<svg fill="#000000" height="800px" width="800px" version="1.1" id="Layer_1" xmlns="http://www.w3.org/2000/svg" xmlns:xlink="http://www.w3.org/1999/xlink" 
	 viewBox="0 0 508 508" xml:space="preserve">
<g>
	<g>
		<path d="M378.756,0h-249.58C57.948,0,0,57.964,0,129.216v249.572C0,450.036,57.948,508,129.176,508h249.58
			C450.02,508,508,450.036,508,378.792V129.216C508,57.964,450.02,0,378.756,0z M500,378.792
			c0,66.836-54.392,121.212-121.244,121.212h-249.58C62.36,500.004,8,445.628,8,378.792V129.216C8,62.376,62.36,8,129.176,8h249.58
			C445.612,8,500,62.376,500,129.216V378.792z"/>
	</g>
</g>
<g>
	<g>
		<path d="M480.192,253.968c-2.208,0-4,1.788-4,4v112.024c0,57.568-48.632,106.2-106.2,106.2H138.004
			c-57.564,0-106.196-48.632-106.196-106.2V138.008c0-57.568,48.632-106.2,106.196-106.2H369.08c2.208,0,4-1.788,4-4
			c0-2.212-1.792-4-4-4H138.004c-61.9,0-114.196,52.296-114.196,114.2v231.984c0,61.904,52.296,114.2,114.196,114.2h231.988
			c61.904,0,114.2-52.296,114.2-114.2V257.968C484.192,255.756,482.4,253.968,480.192,253.968z"/>
	</g>
</g>
<g>
	<g>
		<path d="M449.808,58.188c-20.884-20.884-53.868-34.38-84.036-34.38c-2.208,0-4,1.788-4,4c0,2.212,1.792,4,4,4
			c28.152,0,58.92,12.576,78.38,32.036c0.78,0.78,1.804,1.172,2.828,1.172s2.048-0.392,2.828-1.172
			C451.372,62.28,451.372,59.752,449.808,58.188z"/>
	</g>
</g>
<g>
	<g>
		<path d="M480.192,166.668c-2.208,0-4,1.788-4,4v59.524c0,2.212,1.792,4,4,4s4-1.788,4-4v-59.524
			C484.192,168.456,482.4,166.668,480.192,166.668z"/>
	</g>
</g>
<g>
	<g>
		<path d="M172.32,241.176c-2-0.388-3.932,0.752-4.568,2.664l-20.664,62.216c-0.432,1.308-0.164,2.748,0.716,3.812
			c0.768,0.924,1.9,1.448,3.084,1.448c0.176,0,0.352-0.012,0.528-0.032l16.68-2.228c1.884-0.252,3.336-1.8,3.46-3.7l3.984-59.988
			C175.676,243.36,174.296,241.564,172.32,241.176z M163.792,301.56l-7.092,0.944l8.788-26.452L163.792,301.56z"/>
	</g>
</g>
<g>
	<g>
		<g>
			<path d="M203.228,239.432c-0.004-2.208-1.796-3.992-4-3.992c-0.004,0-0.008,0-0.008,0c-2.208,0.004-3.996,1.8-3.992,4.008
				l0.244,116.28l0.104,1.48l-21.34,3.54l-3.368,0.488l-0.16-29.112c0-1.164-0.512-2.276-1.392-3.032
				c-0.88-0.756-2.056-1.076-3.204-0.924l-24.56,3.704c-1.44,0.22-2.652,1.2-3.156,2.568l-12.712,34.292l-0.232,0.752l-17.82,3.168
				l-3.156,0.668l77.552-193.892l17.712-2.972c2.18-0.364,3.648-2.428,3.284-4.604c-0.364-2.18-2.4-3.66-4.608-3.284l-19.928,3.344
				c-1.376,0.228-2.532,1.164-3.052,2.46L94.268,377.296c-0.544,1.368-0.296,2.932,0.656,4.06c0.768,0.912,1.892,1.424,3.06,1.424
				c0.272,0,0.552-0.028,0.844-0.088l10.336-2.188l17.196-3.02l3.172-0.748c1.384-0.324,2.492-1.364,2.908-2.724l12.644-34.584
				l17.632-2.656l0.004,22.264l0.444,7.028c0.072,1.112,0.604,2.148,1.472,2.852c0.864,0.704,1.992,1.008,3.092,0.856l27.592-4.44
				l5.084-0.732c2.076-0.304,3.568-2.156,3.42-4.248l-0.36-4.916L203.228,239.432z"/>
			<path d="M413.468,213.476c-0.84-1.508-2.548-2.284-4.24-1.976l-17.108,3.264l-16.616,3.488H374.1
				c-0.724,0-1.436,0.196-2.056,0.568l-1.448,0.868c-0.328,0.196-0.624,0.44-0.884,0.72l-11.228,12.148L379.456,131.5
				c0.24-1.144-0.036-2.336-0.752-3.26c-0.716-0.928-1.8-1.488-2.968-1.548l-30.424-1.484c-1.996-0.156-3.7,1.252-4.108,3.168
				L296.268,340.56c-0.268,1.276,0.096,2.6,0.98,3.552c0.76,0.824,1.828,1.28,2.932,1.28c0.176,0,0.356-0.012,0.528-0.04l8.444-1.14
				l18.188-2.932l4.004-0.36c1.668-0.148,3.068-1.328,3.504-2.944l4.176-18.068l4.396,15.88c0.544,1.94,2.432,3.184,4.424,2.88
				l24.14-3.668l6.9-0.748c1.18-0.128,2.244-0.772,2.904-1.764c0.656-0.992,0.84-2.224,0.496-3.36l-17.468-58.184l48.12-52.82
				C414.096,216.852,414.308,214.98,413.468,213.476z M357.38,267.232c-0.948,1.04-1.276,2.5-0.872,3.844l16.736,55.748
				l-23.06,3.428l-7.728-28.06c-0.488-1.768-2.06-2.992-3.96-2.936c-1.84,0.052-3.408,1.344-3.804,3.14l-6.468,29.432l-0.372,1.384
				l-19.864,3.088l-2.716,0.368l43.052-203.304l22.356,1.088l-22.952,110.584c-0.368,1.76,0.488,3.548,2.084,4.368
				c1.6,0.832,3.548,0.48,4.768-0.84l20.62-22.308l0.72,0c0.276,0,0.552-0.024,0.824-0.084l16.952-3.56l5.248-1L357.38,267.232z"/>
			<path d="M276.584,267.5c-4.76-4.864-10.284-11.14-9.564-13.412c0.064-0.208,0.056-0.188,0.088-0.408
				c0.396-0.88,3.336-3.208,7.7-3.472c4.896,0,7.684,0.264,9.992,1.016l3.248,0.748c1.364,0.308,2.788-0.104,3.764-1.104
				l17.116-18.232c0.952-1.024,1.296-2.472,0.912-3.816c-0.38-1.344-1.44-2.388-2.788-2.76l-9.576-2.628
				c-4.78-1.52-9.72-3.104-21.716-2.316c-21.996,0.788-42.108,14.536-45.78,31.304c-2.828,13.148,0.644,22.364,14.376,38
				c13.548,14.576,15.188,19.516,13.856,25.772c-0.676,3.492-8.232,9.596-17.268,10.868c-4.956,0.684-8.112,0.696-10.596,0.148
				l-3.604-1.124c-1.624-0.516-3.404,0.072-4.416,1.452l-2.052,2.804l-14.832,18.116c-0.884,1.068-1.156,2.512-0.716,3.824
				c0.436,1.312,1.524,2.304,2.868,2.62l9.356,2.22c3.124,0.796,6.852,1.192,10.916,1.192c4.568,0,9.564-0.5,14.608-1.484
				c22.6-3.604,48.844-20,53.636-41.212C300.436,296.376,292.584,283.86,276.584,267.5z M288.312,313.852
				c-3.864,17.108-27.468,31.944-47.228,35.096c-8.428,1.644-16.716,1.804-22.22,0.408l-3.152-0.752l10.896-13.38l0.488-0.66
				l1.176,0.364c3.736,0.848,7.856,0.868,13.772,0.06c11.524-1.624,22.524-9.536,24.008-17.2c2.336-10.988-3-19.004-15.76-32.732
				c-11.928-13.588-14.732-20.528-12.492-30.94c2.876-13.132,20.036-24.352,38.364-25.012c10.616-0.692,14.44,0.536,18.888,1.952
				c0.052,0.016,0.4,0.124,0.452,0.14l3.072,0.84l-9.948,10.64l-0.984,1.008l-0.676-0.152c-2.828-0.944-6.2-1.316-12.224-1.316
				c-0.056,0-0.112,0-0.168,0c-7.528,0.448-14.256,4.772-15.26,9.724c-1.408,4.768,0.108,9.46,11.556,21.152
				C285.528,288.076,291.88,298,288.312,313.852z"/>
		</g>
	</g>
</g>
</svg>